<svg width="47" height="36" viewBox="0 0 47 36" fill="none" xmlns="http://www.w3.org/2000/svg">
<path d="M39.4413 3.5879C36.4769 2.25103 33.2994 1.2629 29.9766 0.701028C29.947 0.695348 29.9164 0.699009 29.889 0.711505C29.8615 0.724002 29.8387 0.744716 29.8235 0.770778C29.4167 1.48572 28.9633 2.41765 28.6455 3.1539C25.1214 2.62736 21.5386 2.62736 18.0145 3.1539C17.6606 2.33795 17.2615 1.54234 16.819 0.770778C16.804 0.744395 16.7814 0.723212 16.754 0.710057C16.7267 0.696903 16.696 0.692401 16.666 0.697153C13.3451 1.25903 10.1676 2.24715 7.20129 3.58597C7.17577 3.59667 7.15414 3.61492 7.13929 3.63828C1.10979 12.5023 -0.542897 21.1475 0.268916 29.6841C0.271175 29.705 0.277664 29.7252 0.28799 29.7435C0.298316 29.7619 0.312261 29.7779 0.328978 29.7907C3.84824 32.3528 7.77351 34.3047 11.9404 35.5644C11.9695 35.5733 12.0005 35.5733 12.0296 35.5643C12.0586 35.5553 12.0842 35.5378 12.1032 35.514C12.9998 34.3148 13.7944 33.0426 14.4785 31.7107C14.488 31.6925 14.4935 31.6725 14.4946 31.652C14.4957 31.6314 14.4923 31.6109 14.4848 31.5918C14.4773 31.5727 14.4657 31.5555 14.4509 31.5412C14.4361 31.527 14.4185 31.516 14.3991 31.5092C13.1475 31.0379 11.9348 30.4691 10.7721 29.8081C10.7512 29.7962 10.7336 29.7792 10.7209 29.7588C10.7081 29.7384 10.7007 29.7152 10.6991 29.6912C10.6976 29.6672 10.702 29.6432 10.7121 29.6213C10.7221 29.5994 10.7374 29.5804 10.7566 29.5659C11.0007 29.3857 11.2449 29.1978 11.4774 29.0098C11.4983 28.9929 11.5235 28.9822 11.5502 28.9788C11.5769 28.9753 11.604 28.9794 11.6285 28.9905C19.237 32.4082 27.4772 32.4082 34.9967 28.9905C35.0212 28.9787 35.0486 28.9741 35.0757 28.9772C35.1028 28.9803 35.1284 28.9909 35.1497 29.0079C35.3822 29.1978 35.6244 29.3857 35.8705 29.5659C35.8899 29.5801 35.9054 29.5989 35.9158 29.6205C35.9261 29.6422 35.9309 29.6661 35.9298 29.6901C35.9286 29.7141 35.9216 29.7374 35.9092 29.758C35.8968 29.7786 35.8795 29.7958 35.8589 29.8081C34.7002 30.4746 33.4951 31.0384 32.2299 31.5073C32.2105 31.5143 32.1928 31.5254 32.178 31.5399C32.1632 31.5543 32.1517 31.5718 32.1441 31.591C32.1366 31.6103 32.1333 31.6309 32.1344 31.6515C32.1355 31.6722 32.141 31.6924 32.1505 31.7107C32.848 33.0418 33.6462 34.3089 34.5239 35.5121C34.5422 35.5368 34.5676 35.5552 34.5967 35.5649C34.6258 35.5747 34.6573 35.5751 34.6867 35.5663C38.8607 34.3101 42.7924 32.3574 46.3155 29.7907C46.3327 29.7786 46.3471 29.7631 46.3578 29.745C46.3685 29.727 46.3752 29.7069 46.3775 29.686C47.3463 19.8164 44.7539 11.241 39.5014 3.64215C39.4885 3.61746 39.4672 3.59821 39.4413 3.5879ZM15.6159 24.4858C13.3257 24.4858 11.4367 22.4146 11.4367 19.8745C11.4367 17.3325 13.2889 15.2633 15.6159 15.2633C17.9602 15.2633 19.8319 17.35 19.795 19.8745C19.795 22.4165 17.9428 24.4858 15.6159 24.4858ZM31.0674 24.4858C28.7754 24.4858 26.8882 22.4146 26.8882 19.8745C26.8882 17.3325 28.7385 15.2633 31.0674 15.2633C33.4118 15.2633 35.2834 17.35 35.2466 19.8745C35.2466 22.4165 33.4137 24.4858 31.0674 24.4858Z" fill="#18191F"/>
</svg>
