<svg width="42" height="42" viewBox="0 0 42 42" fill="none" xmlns="http://www.w3.org/2000/svg">
<path d="M42 21C42 32.5973 32.5973 42 21 42C9.40267 42 0 32.5973 0 21C0 9.40267 9.40267 0 21 0C32.5998 0 42 9.40267 42 21Z" fill="#2081E2"/>
<path d="M10.3606 21.7057L10.4512 21.5632L15.9141 13.0172C15.9939 12.892 16.1816 12.905 16.242 13.0409C17.1547 15.0863 17.9422 17.63 17.5733 19.2137C17.4158 19.8653 16.9843 20.7477 16.4988 21.5632C16.4363 21.6819 16.3672 21.7984 16.2938 21.9106C16.2593 21.9624 16.2011 21.9926 16.1385 21.9926H10.5202C10.3692 21.9926 10.2807 21.8286 10.3606 21.7057Z" fill="#FFC46B"/>
<path d="M34.7105 23.2935V24.6463C34.7105 24.724 34.663 24.793 34.594 24.8232C34.1711 25.0044 32.7234 25.669 32.1214 26.5061C30.5852 28.6442 29.4115 31.7015 26.7879 31.7015H15.8426C11.9634 31.7015 8.81982 28.5472 8.81982 24.6549V24.5298C8.81982 24.4262 8.90395 24.3421 9.00752 24.3421H15.1091C15.2299 24.3421 15.3184 24.4543 15.3076 24.5729C15.2644 24.9699 15.3378 25.3755 15.5255 25.7445C15.888 26.4802 16.6388 26.9398 17.45 26.9398H20.4706V24.5816H17.4845C17.3314 24.5816 17.2408 24.4046 17.3292 24.2795C17.3616 24.2299 17.3983 24.1781 17.4371 24.1199C17.7197 23.7186 18.1232 23.095 18.5245 22.3852C18.7985 21.9062 19.0639 21.3949 19.2775 20.8814C19.3207 20.7886 19.3551 20.6936 19.3897 20.6009C19.4479 20.4369 19.5084 20.2837 19.5515 20.1305C19.5947 20.0011 19.6292 19.8651 19.6637 19.7378C19.7651 19.302 19.8082 18.8403 19.8082 18.3613C19.8082 18.1736 19.7996 17.9773 19.7824 17.7896C19.7737 17.5846 19.7478 17.3796 19.7219 17.1747C19.7047 16.9934 19.6723 16.8144 19.6378 16.6267C19.5947 16.3526 19.5342 16.0808 19.4652 15.8068L19.4415 15.7032C19.3897 15.5155 19.3465 15.3365 19.2861 15.1488C19.1157 14.5597 18.9194 13.9858 18.7122 13.4486C18.6367 13.235 18.5504 13.03 18.4641 12.8251C18.3368 12.5165 18.2073 12.2361 18.0887 11.9707C18.0283 11.8498 17.9765 11.7398 17.9247 11.6276C17.8665 11.5003 17.8061 11.373 17.7456 11.2522C17.7025 11.1594 17.6528 11.0731 17.6183 10.9868L17.2494 10.305C17.1976 10.2122 17.2839 10.1022 17.3853 10.1303L19.6939 10.7559H19.7004C19.7047 10.7559 19.7069 10.7581 19.709 10.7581L20.0132 10.8422L20.3476 10.9372L20.4706 10.9717V9.59951C20.4706 8.93712 21.0014 8.3999 21.6573 8.3999C21.9852 8.3999 22.283 8.53367 22.4966 8.75157C22.7101 8.96951 22.8439 9.26724 22.8439 9.59951V11.6363L23.0899 11.7053C23.1093 11.7118 23.1287 11.7204 23.146 11.7333C23.2064 11.7786 23.2927 11.8455 23.4027 11.9275C23.489 11.9965 23.5818 12.0807 23.694 12.167C23.9162 12.3461 24.1816 12.5769 24.4729 12.8423C24.5505 12.9092 24.6261 12.9782 24.6951 13.0473C25.0705 13.3968 25.4913 13.8067 25.8926 14.2598C26.0048 14.3871 26.1148 14.5166 26.227 14.6525C26.3392 14.7906 26.4578 14.9265 26.5614 15.0624C26.6973 15.2437 26.844 15.4314 26.9713 15.6277C27.0317 15.7205 27.1008 15.8154 27.159 15.9082C27.323 16.1563 27.4676 16.4131 27.6057 16.6698C27.6639 16.7885 27.7243 16.9179 27.7761 17.0452C27.9293 17.3883 28.0501 17.7378 28.1278 18.0873C28.1515 18.1628 28.1688 18.2448 28.1774 18.3182V18.3355C28.2033 18.439 28.2119 18.549 28.2205 18.6612C28.2551 19.0194 28.2378 19.3775 28.1602 19.7378C28.1278 19.8911 28.0846 20.0356 28.0329 20.1888C27.9811 20.3355 27.9293 20.4887 27.8624 20.6332C27.733 20.9331 27.5798 21.233 27.3985 21.5135C27.3403 21.6171 27.2712 21.7271 27.2022 21.8307C27.1267 21.9407 27.049 22.0443 26.98 22.1457C26.885 22.2751 26.7836 22.4111 26.6801 22.5319C26.5873 22.6592 26.4924 22.7865 26.3888 22.8987C26.2442 23.0691 26.1061 23.2309 25.9616 23.3863C25.8753 23.4877 25.7825 23.5913 25.6876 23.684C25.5948 23.7876 25.4999 23.8803 25.4136 23.9667C25.269 24.1112 25.1482 24.2234 25.0468 24.3162L24.8095 24.5341C24.775 24.5643 24.7296 24.5816 24.6822 24.5816H22.8439V26.9398H25.1568C25.6746 26.9398 26.1666 26.7564 26.5636 26.4198C26.6995 26.3011 27.2928 25.7876 27.994 25.0131C28.0177 24.9872 28.048 24.9678 28.0825 24.9592L34.471 23.1123C34.5897 23.0778 34.7105 23.1684 34.7105 23.2935Z" fill="#FFC46B"/>
</svg>
