<svg width="46" height="46" viewBox="0 0 46 46" fill="none" xmlns="http://www.w3.org/2000/svg">
<path d="M23.3367 0.672852C10.9926 0.672852 0.980957 10.6845 0.980957 23.0286C0.980957 35.3727 10.9926 45.3844 23.3367 45.3844C35.6808 45.3844 45.6925 35.3727 45.6925 23.0286C45.6925 10.6845 35.6864 0.672852 23.3367 0.672852ZM12.0098 23.7794L12.1048 23.6285L17.9229 14.5297C17.9424 14.4998 17.9696 14.4757 18.0015 14.4598C18.0335 14.444 18.0692 14.4371 18.1048 14.4397C18.1404 14.4424 18.1746 14.4546 18.2039 14.475C18.2332 14.4954 18.2565 14.5233 18.2713 14.5558C19.24 16.7336 20.0821 19.4424 19.6871 21.1284C19.5232 21.8214 19.063 22.7604 18.5433 23.6285C18.4766 23.7555 18.4039 23.8792 18.3253 23.9992C18.3065 24.026 18.2813 24.0477 18.2521 24.0623C18.2228 24.0769 18.1903 24.0841 18.1576 24.0831H12.1831C12.1474 24.0836 12.1123 24.0745 12.0814 24.0567C12.0505 24.0389 12.025 24.013 12.0076 23.9819C11.9902 23.9507 11.9816 23.9155 11.9826 23.8798C11.9837 23.8442 11.9943 23.8095 12.0135 23.7794H12.0098ZM37.9313 26.9092C37.9318 26.949 37.9206 26.988 37.899 27.0215C37.8775 27.0549 37.8466 27.0813 37.8102 27.0974C37.3575 27.2893 35.8168 28.0009 35.176 28.8896C33.5403 31.1661 32.2921 34.4226 29.4976 34.4226H17.8465C16.8628 34.4211 15.889 34.2258 14.9808 33.8479C14.0726 33.4699 13.2478 32.9166 12.5535 32.2197C11.8592 31.5229 11.309 30.696 10.9344 29.7864C10.5598 28.8768 10.3682 27.9022 10.3704 26.9185V26.7844C10.3704 26.6763 10.4598 26.5869 10.5716 26.5869H17.0641C17.1945 26.5869 17.2876 26.7043 17.2783 26.8328C17.2299 27.2539 17.31 27.6879 17.5112 28.081C17.895 28.8635 18.696 29.3516 19.5586 29.3516H22.7741V26.8421H19.5921C19.5548 26.8417 19.5184 26.8312 19.4867 26.8116C19.4549 26.792 19.4291 26.7641 19.4121 26.731C19.395 26.6978 19.3873 26.6606 19.3898 26.6234C19.3924 26.5862 19.405 26.5504 19.4263 26.5198L19.5437 26.3522C19.8418 25.9218 20.2721 25.2605 20.7006 24.5041C20.9912 23.9936 21.2744 23.4497 21.5017 22.9019C21.5464 22.8051 21.5818 22.7026 21.6228 22.6039C21.6843 22.4287 21.7476 22.2648 21.7923 22.1027C21.8362 21.9653 21.8766 21.8268 21.9134 21.6873C22.0196 21.2215 22.0643 20.7297 22.0643 20.2211C22.0643 20.0199 22.0569 19.8094 22.0382 19.6119C22.0289 19.3939 22.001 19.1741 21.9749 18.9561C21.9541 18.7611 21.9242 18.5672 21.8855 18.3749C21.8353 18.0821 21.7744 17.7913 21.7029 17.503L21.6768 17.3912C21.6209 17.19 21.5725 17 21.5091 16.8007C21.3317 16.1885 21.1279 15.5843 20.8981 14.9899C20.818 14.7662 20.7298 14.5456 20.6335 14.3285C20.4994 13.9969 20.3615 13.697 20.2367 13.4156C20.1746 13.2951 20.1162 13.1727 20.0616 13.0486C20.001 12.9148 19.937 12.7824 19.8697 12.6518C19.825 12.5531 19.771 12.4581 19.7356 12.3686L19.3425 11.6458C19.2885 11.5471 19.3779 11.426 19.4859 11.4576L21.9451 12.1227H21.9637L22.286 12.2159L22.6437 12.3165L22.7741 12.3519V10.8932C22.7741 10.1871 23.3367 9.61516 24.0391 9.61516C24.2049 9.61471 24.3691 9.64782 24.5219 9.71249C24.6746 9.77717 24.8126 9.87207 24.9277 9.99148C25.1656 10.2314 25.2994 10.5553 25.3003 10.8932V13.0617L25.563 13.1343C25.5816 13.1436 25.604 13.153 25.6207 13.166C25.6841 13.2107 25.7772 13.2815 25.8946 13.3709C25.9877 13.4417 26.0865 13.5311 26.202 13.6262C26.5699 13.9259 26.9266 14.2391 27.2713 14.5651C27.67 14.9358 28.1171 15.3699 28.5456 15.8524C28.6667 15.9903 28.7822 16.1244 28.9033 16.2735C29.0188 16.4206 29.1492 16.5641 29.2573 16.7057C29.4045 16.8994 29.5554 17.1006 29.6951 17.3093C29.7566 17.408 29.8329 17.5105 29.8907 17.6092C30.0695 17.8738 30.2223 18.1457 30.3695 18.4196C30.4328 18.5444 30.4943 18.6823 30.5483 18.8164C30.7141 19.1834 30.8445 19.5542 30.9246 19.9305C30.9512 20.0104 30.9693 20.0928 30.9787 20.1764V20.195C31.0048 20.3012 31.0141 20.4186 31.0234 20.5378C31.0758 21.0885 31.0085 21.6439 30.8259 22.1661C30.7682 22.3226 30.7141 22.4828 30.6433 22.6393C30.5036 22.956 30.3434 23.2783 30.1515 23.5745C30.0882 23.6863 30.0118 23.8018 29.941 23.9135C29.8609 24.0309 29.7752 24.1427 29.7044 24.2489C29.602 24.3899 29.4944 24.5273 29.3821 24.6606C29.2834 24.7947 29.1846 24.9289 29.0728 25.05C28.9219 25.2325 28.7748 25.4039 28.6164 25.5679C28.527 25.6759 28.4301 25.7877 28.3258 25.8846C28.2289 25.9963 28.1246 26.0951 28.0352 26.1845C27.8787 26.341 27.7557 26.4584 27.6477 26.5608L27.3924 26.7881C27.3569 26.8238 27.3087 26.8439 27.2583 26.844H25.3003V29.3516H27.7632C28.3127 29.3516 28.8362 29.1578 29.261 28.7964C29.4045 28.6716 30.0341 28.1257 30.7812 27.3023C30.8055 27.2743 30.8382 27.2547 30.8743 27.2464L37.6742 25.2772C37.7041 25.2686 37.7355 25.267 37.7661 25.2726C37.7967 25.2781 37.8256 25.2907 37.8505 25.3093C37.8754 25.3279 37.8956 25.352 37.9097 25.3797C37.9237 25.4074 37.9311 25.438 37.9313 25.4691V26.9092Z" fill="#202020"/>
</svg>
