<svg width="46" height="46" viewBox="0 0 46 46" fill="none" xmlns="http://www.w3.org/2000/svg">
<path d="M22.9922 0.301758C10.5999 0.301758 0.551758 10.3499 0.551758 22.7422C0.551758 35.1346 10.5999 45.1827 22.9922 45.1827C35.3846 45.1827 45.4327 35.1346 45.4327 22.7422C45.4327 10.3499 35.3846 0.301758 22.9922 0.301758ZM33.7767 17.2173C33.7917 17.4527 33.7917 17.6981 33.7917 17.9386C33.7917 25.2918 28.1916 33.7621 17.9582 33.7621C14.8025 33.7621 11.8772 32.8455 9.41274 31.2676C9.86355 31.3177 10.2943 31.3377 10.7552 31.3377C13.3599 31.3377 15.7542 30.4562 17.6626 28.9635C15.2182 28.9134 13.1645 27.3105 12.4632 25.1065C13.3198 25.2317 14.0912 25.2317 14.9728 25.0063C13.7141 24.7506 12.5828 24.067 11.7711 23.0717C10.9593 22.0765 10.5172 20.8308 10.5197 19.5465V19.4763C11.2561 19.8921 12.1226 20.1476 13.0293 20.1826C12.2671 19.6747 11.6421 18.9865 11.2095 18.1792C10.777 17.3718 10.5504 16.4702 10.5498 15.5543C10.5498 14.5174 10.8203 13.5707 11.3062 12.7492C12.7032 14.469 14.4465 15.8756 16.4227 16.8775C18.3989 17.8794 20.5639 18.4543 22.7768 18.5647C21.9904 14.7829 24.8155 11.7224 28.2116 11.7224C29.8145 11.7224 31.2571 12.3936 32.274 13.4755C33.5312 13.2401 34.7334 12.7692 35.8053 12.1381C35.3896 13.4254 34.518 14.5124 33.3609 15.1986C34.483 15.0784 35.5649 14.7679 36.5667 14.3321C35.8104 15.4441 34.8636 16.4309 33.7767 17.2173Z" fill="#202020"/>
</svg>
